<?xml version="1.0" encoding="UTF-8"?>
<svg width="200" height="200" viewBox="0 0 200 200" fill="none" xmlns="http://www.w3.org/2000/svg">
  <!-- Background Circle -->
  <circle cx="100" cy="100" r="100" fill="#F0F7FF"/>
  
  <!-- Lips -->
  <path d="M40 100C40 100 60 120 100 120C140 120 160 100 160 100C160 100 140 135 100 135C60 135 40 100 40 100Z" fill="#FF9E9E" fill-opacity="0.6" stroke="#FA8072" stroke-width="2"/>
  
  <!-- Teeth Row -->
  <path d="M55 100C55 100 70 115 100 115C130 115 145 100 145 100" fill="white" stroke="#0EA5E9" stroke-width="2.5"/>
  
  <!-- Individual Teeth -->
  <path d="M60 100V110" stroke="#0EA5E9" stroke-width="1.5"/>
  <path d="M70 100V112" stroke="#0EA5E9" stroke-width="1.5"/>
  <path d="M80 100V114" stroke="#0EA5E9" stroke-width="1.5"/>
  <path d="M90 100V115" stroke="#0EA5E9" stroke-width="1.5"/>
  <path d="M100 100V115" stroke="#0EA5E9" stroke-width="1.5"/>
  <path d="M110 100V115" stroke="#0EA5E9" stroke-width="1.5"/>
  <path d="M120 100V114" stroke="#0EA5E9" stroke-width="1.5"/>
  <path d="M130 100V112" stroke="#0EA5E9" stroke-width="1.5"/>
  <path d="M140 100V110" stroke="#0EA5E9" stroke-width="1.5"/>
  
  <!-- Sparkle Effects -->
  <path d="M75 95L80 100M80 95L75 100" stroke="white" stroke-width="2" stroke-linecap="round"/>
  <path d="M125 95L130 100M130 95L125 100" stroke="white" stroke-width="2" stroke-linecap="round"/>
  
  <!-- Front Teeth Highlight -->
  <rect x="90" y="100" width="20" height="15" fill="#F8FCFF" stroke="#0EA5E9" stroke-width="0.5"/>
  
  <!-- Star Elements -->
  <path d="M170 70L172 75L177 76L174 80L175 85L170 83L165 85L166 80L163 76L168 75L170 70Z" fill="#FFD700" stroke="#0EA5E9" stroke-width="0.5"/>
  <path d="M30 70L32 75L37 76L34 80L35 85L30 83L25 85L26 80L23 76L28 75L30 70Z" fill="#FFD700" stroke="#0EA5E9" stroke-width="0.5"/>
  
  <!-- Small Stars -->
  <path d="M155 55L156 58L159 59L157 61L158 64L155 63L152 64L153 61L151 59L154 58L155 55Z" fill="#FFD700" stroke="#0EA5E9" stroke-width="0.5"/>
  <path d="M45 55L46 58L49 59L47 61L48 64L45 63L42 64L43 61L41 59L44 58L45 55Z" fill="#FFD700" stroke="#0EA5E9" stroke-width="0.5"/>
  
  <!-- Shine Line -->
  <path d="M80 90C80 90 90 85 100 85C110 85 120 90 120 90" stroke="white" stroke-width="2" stroke-linecap="round"/>
</svg>