<?xml version="1.0" encoding="UTF-8"?>
<svg width="800" height="600" viewBox="0 0 800 600" fill="none" xmlns="http://www.w3.org/2000/svg">
  <!-- Background -->
  <rect width="800" height="600" fill="#F3F4F6"/>
  
  <!-- Decorative elements -->
  <path d="M0,500 C100,450 200,550 300,500 C400,450 500,550 600,500 C700,450 800,550 900,500 L900,600 L0,600 Z" fill="#2563EB" opacity="0.1"/>
  
  <!-- Map illustration background -->
  <rect x="150" y="120" width="500" height="300" rx="8" fill="white" stroke="#2563EB" stroke-width="2"/>
  
  <!-- Map grid lines -->
  <line x1="150" y1="170" x2="650" y2="170" stroke="#2563EB" stroke-width="1" stroke-opacity="0.2"/>
  <line x1="150" y1="220" x2="650" y2="220" stroke="#2563EB" stroke-width="1" stroke-opacity="0.2"/>
  <line x1="150" y1="270" x2="650" y2="270" stroke="#2563EB" stroke-width="1" stroke-opacity="0.2"/>
  <line x1="150" y1="320" x2="650" y2="320" stroke="#2563EB" stroke-width="1" stroke-opacity="0.2"/>
  <line x1="150" y1="370" x2="650" y2="370" stroke="#2563EB" stroke-width="1" stroke-opacity="0.2"/>
  
  <line x1="200" y1="120" x2="200" y2="420" stroke="#2563EB" stroke-width="1" stroke-opacity="0.2"/>
  <line x1="250" y1="120" x2="250" y2="420" stroke="#2563EB" stroke-width="1" stroke-opacity="0.2"/>
  <line x1="300" y1="120" x2="300" y2="420" stroke="#2563EB" stroke-width="1" stroke-opacity="0.2"/>
  <line x1="350" y1="120" x2="350" y2="420" stroke="#2563EB" stroke-width="1" stroke-opacity="0.2"/>
  <line x1="400" y1="120" x2="400" y2="420" stroke="#2563EB" stroke-width="1" stroke-opacity="0.2"/>
  <line x1="450" y1="120" x2="450" y2="420" stroke="#2563EB" stroke-width="1" stroke-opacity="0.2"/>
  <line x1="500" y1="120" x2="500" y2="420" stroke="#2563EB" stroke-width="1" stroke-opacity="0.2"/>
  <line x1="550" y1="120" x2="550" y2="420" stroke="#2563EB" stroke-width="1" stroke-opacity="0.2"/>
  <line x1="600" y1="120" x2="600" y2="420" stroke="#2563EB" stroke-width="1" stroke-opacity="0.2"/>
  
  <!-- Bosphorus -->
  <path d="M380,120 C370,170 410,220 390,270 C370,320 390,370 380,420" stroke="#2563EB" stroke-width="8" stroke-opacity="0.3"/>

  <!-- Land masses -->
  <path d="M150,120 L380,120 C370,170 410,220 390,270 C370,320 390,370 380,420 L150,420 Z" fill="#2563EB" fill-opacity="0.1"/>
  <path d="M380,120 L650,120 L650,420 L380,420 C390,370 370,320 390,270 C410,220 370,170 380,120 Z" fill="#2563EB" fill-opacity="0.05"/>
  
  <!-- City center marker -->
  <circle cx="350" cy="230" r="15" fill="#2563EB" fill-opacity="0.2" stroke="#2563EB" stroke-width="2"/>
  <circle cx="350" cy="230" r="5" fill="#2563EB"/>
  
  <!-- Points of interest -->
  <!-- Hagia Sophia -->
  <circle cx="335" cy="215" r="6" fill="#1E3A8A"/>
  <text x="335" y="200" font-family="Arial, sans-serif" font-size="10" fill="#1E3A8A" text-anchor="middle">Hagia Sophia</text>
  
  <!-- Blue Mosque -->
  <circle cx="335" cy="230" r="6" fill="#1E3A8A"/>
  <text x="335" y="245" font-family="Arial, sans-serif" font-size="10" fill="#1E3A8A" text-anchor="middle">Blue Mosque</text>
  
  <!-- Grand Bazaar -->
  <circle cx="320" cy="195" r="6" fill="#1E3A8A"/>
  <text x="320" y="180" font-family="Arial, sans-serif" font-size="10" fill="#1E3A8A" text-anchor="middle">Grand Bazaar</text>
  
  <!-- Topkapi Palace -->
  <circle cx="355" cy="200" r="6" fill="#1E3A8A"/>
  <text x="355" y="185" font-family="Arial, sans-serif" font-size="10" fill="#1E3A8A" text-anchor="middle">Topkapi Palace</text>
  
  <!-- Dental Clinic Icon -->
  <g transform="translate(410, 250)">
    <rect x="-10" y="-10" width="40" height="30" rx="5" fill="#2563EB" fill-opacity="0.2"/>
    <path d="M0,0 L20,0 L20,10 L10,10 L10,20 L0,20 Z" fill="#2563EB"/>
    <text x="10" y="-15" font-family="Arial, sans-serif" font-size="10" fill="#1E3A8A" text-anchor="middle">Dental Clinics</text>
  </g>
  
  <!-- Taksim -->
  <circle cx="300" cy="150" r="6" fill="#1E3A8A"/>
  <text x="300" y="135" font-family="Arial, sans-serif" font-size="10" fill="#1E3A8A" text-anchor="middle">Taksim</text>
  
  <!-- Galata -->
  <circle cx="315" cy="170" r="6" fill="#1E3A8A"/>
  <text x="315" y="155" font-family="Arial, sans-serif" font-size="10" fill="#1E3A8A" text-anchor="middle">Galata</text>
  
  <!-- Compass rose -->
  <g transform="translate(600, 380)">
    <circle cx="0" cy="0" r="20" fill="white" stroke="#2563EB" stroke-width="1"/>
    <line x1="0" y1="-15" x2="0" y2="15" stroke="#2563EB" stroke-width="1"/>
    <line x1="-15" y1="0" x2="15" y2="0" stroke="#2563EB" stroke-width="1"/>
    <text x="0" y="-5" font-family="Arial, sans-serif" font-size="10" fill="#1E3A8A" text-anchor="middle">N</text>
    <text x="0" y="15" font-family="Arial, sans-serif" font-size="10" fill="#1E3A8A" text-anchor="middle">S</text>
    <text x="15" y="5" font-family="Arial, sans-serif" font-size="10" fill="#1E3A8A" text-anchor="middle">E</text>
    <text x="-15" y="5" font-family="Arial, sans-serif" font-size="10" fill="#1E3A8A" text-anchor="middle">W</text>
  </g>
  
  <!-- Scale -->
  <line x1="170" y1="390" x2="270" y2="390" stroke="#2563EB" stroke-width="2"/>
  <text x="220" y="380" font-family="Arial, sans-serif" font-size="10" fill="#1E3A8A" text-anchor="middle">5 km</text>

  <!-- Travel elements -->
  <g transform="translate(550, 160)">
    <circle cx="0" cy="0" r="25" fill="#2563EB" fill-opacity="0.1" stroke="#2563EB" stroke-width="1"/>
    <path d="M-10,-5 L10,-5 L15,0 L10,5 L-10,5 L-15,0 Z" fill="#2563EB"/>
    <circle cx="-7" cy="0" r="3" fill="white" stroke="#2563EB" stroke-width="1"/>
    <circle cx="7" cy="0" r="3" fill="white" stroke="#2563EB" stroke-width="1"/>
  </g>
  
  <g transform="translate(550, 220)">
    <circle cx="0" cy="0" r="25" fill="#2563EB" fill-opacity="0.1" stroke="#2563EB" stroke-width="1"/>
    <path d="M-10,-10 L10,-10 L10,0 L5,0 L5,10 L-5,10 L-5,0 L-10,0 Z" fill="#2563EB"/>
  </g>
  
  <g transform="translate(550, 280)">
    <circle cx="0" cy="0" r="25" fill="#2563EB" fill-opacity="0.1" stroke="#2563EB" stroke-width="1"/>
    <path d="M-10,5 L10,5 L10,-5 C10,-10 5,-10 0,-5 C-5,-10 -10,-10 -10,-5 Z" fill="#2563EB"/>
  </g>
  
  <!-- Title -->
  <text x="400" y="470" font-family="Arial, sans-serif" font-size="32" font-weight="bold" fill="#1E3A8A" text-anchor="middle">Patient's Travel Guide to Istanbul</text>
  <text x="400" y="510" font-family="Arial, sans-serif" font-size="20" fill="#4B5563" text-anchor="middle">Everything you need to know for your dental trip</text>
</svg>